<svg xmlns="http://www.w3.org/2000/svg" viewBox="0 0 369.2 155.15"><defs><style>.cls-1{fill:#0b4a7d;}.cls-2{fill:#f47730;}.cls-3{font-size:130px;fill:#231f20;font-family:Calibri;}.cls-4{letter-spacing:-0.05em;}</style></defs><title>Asset 3</title><g id="Layer_2" data-name="Layer 2"><g id="Layer_1-2" data-name="Layer 1"><path class="cls-1" d="M42.06,61.75c0-5,0-10.06,0-15.09,0-.56.13-.71.7-.7,1.73,0,3.47,0,5.21,0,.63,0,.82.13.82.8,0,9.33,0,18.67,0,28,0,.78,0,1.57,0,2.36,0,.36-.13.47-.47.47-1.94,0-3.88,0-5.82,0-.55,0-.41-.36-.41-.64q0-5.82,0-11.64Z"/><path class="cls-1" d="M40,66.47a6.19,6.19,0,0,0-5.09-5.35c-.13,0-.32,0-.39-.22.17-.23.45-.2.67-.26a5,5,0,0,0,2.37-1.48A7.59,7.59,0,0,0,39.32,53,6.4,6.4,0,0,0,35,47.22,19.61,19.61,0,0,0,28,46c-3.56-.06-7.12,0-10.68,0-.46,0-.62.08-.62.58q0,15.21,0,30.43c0,.51.15.63.65.63,2.59,0,5.18,0,7.77,0a46.13,46.13,0,0,0,6.22-.2,11,11,0,0,0,6.56-3C40.08,72.16,40.46,69.41,40,66.47ZM23.41,51.92c0-.25,0-.5.36-.49a28.6,28.6,0,0,1,6.06.32c1.92.47,2.72,1.51,2.63,3.42a3.1,3.1,0,0,1-2.94,3.13,45.65,45.65,0,0,1-5.73.17c-.38,0-.38-.19-.38-.46,0-1,0-2,0-3Zm5.7,20c-1.74.1-3.47.05-5.21.09-.39,0-.5-.12-.49-.5,0-1.22,0-2.44,0-3.66s0-2.39,0-3.58c0-.33.05-.49.43-.48a53.61,53.61,0,0,1,5.81.17,3.79,3.79,0,0,1,3.48,3C33.54,69.84,32,71.81,29.11,72Z"/><path class="cls-1" d="M63.61,69.54a3.38,3.38,0,0,1-.21,1c-.81,2.41-1.6,4.83-2.4,7.24-.41,0-.61-.16-.75-.57Q55.11,62,49.91,46.76c-.19-.56-.09-.67.48-.66,1.87,0,3.74,0,5.61,0,.34,0,.51.06.62.42C58.71,53.31,61,60,63,66.86,63.22,67.74,63.4,68.65,63.61,69.54Z"/><path class="cls-2" d="M106.82,41.67l-5.88-3.38v0a1.18,1.18,0,0,0-.51-.08q-12.45,0-24.89,0a2,2,0,0,1-.74,0c-.56-.23-.67.09-.81.52Q69,53.81,64,68.84c-.08.25-.08.55-.36.7a.37.37,0,0,0-.16.21c-.75,2.48-1.62,4.91-2.42,7.37-.07.23-.18.46,0,.71-.1.56-.46.63-1,.63q-21.27,0-42.54,0c-.73,0-.88.22-.86.9.05,1.71.05,3.42,0,5.14,0,.65.15.81.8.81q23.58,0,47.15,0a2.74,2.74,0,0,0,1.19-.08c.21-.12.19-.64.3-1Q72.45,65,78.83,45.86a1,1,0,0,1,1.13-.8c6.81,0,13.62,0,20.42,0a1.33,1.33,0,0,0,.56-.09v.08Z"/><path class="cls-1" d="M100.17,77.48Q94.7,62,89.25,46.45a.64.64,0,0,0-.74-.48c-2.35,0-4.69,0-7,0a.77.77,0,0,0-.86.61q-3.87,11.1-7.78,22.19c-1,3-2.1,6-3.17,9,2.28,0,4.47,0,6.65,0,.5,0,.65-.18.78-.6.62-2.13,1.29-4.26,1.91-6.39a.68.68,0,0,1,.79-.59q5.2,0,10.41,0a.61.61,0,0,1,.7.51c.56,1.9,1.15,3.79,1.72,5.68.42,1.38.42,1.38,1.87,1.38h5.76A3,3,0,0,0,100.17,77.48ZM88.44,64.61c-2.29,0-4.59,0-6.89,0a.94.94,0,0,1-.61-.09c1.34-4.43,2.68-8.87,4-13.4,1.33,4.33,2.63,8.56,4,12.79C89.1,64.44,89.09,64.62,88.44,64.61Z"/><path class="cls-1" d="M61.72,0a61.72,61.72,0,1,0,61.72,61.72A61.72,61.72,0,0,0,61.72,0Zm0,114.53a52.81,52.81,0,1,1,52.81-52.81A52.81,52.81,0,0,1,61.72,114.53Z"/><text class="cls-3" transform="translate(122.85 114.53)">BI<tspan class="cls-4" x="103.47" y="0">V</tspan><tspan x="171.13" y="0">A</tspan></text></g></g></svg>